# xmcd
#
# Track frame offsets:
# 150
# 8619
# 20081
# 37969
# 53544
# 71211
# 85965
#
# Disc length: 1373 seconds
#
#
# Revision: 0
# Processed by: cddbd v1.5.1PL2 Copyright (c) Steve Scherf et al.
# Submitted via: FreeRIP 2.53 
#
DISCID=4f055b07
DTITLE=spilled wine - Yeah it's ...
DYEAR=1900
DGENRE=Terror
TTITLE0=01-Red Light
TTITLE1=02-Letter
TTITLE2=03-Song of Experience
TTITLE3=04-Kiss You
TTITLE4=05-Song of Innocence
TTITLE5=06-it ain't mine
TTITLE6=07-Where you wanna go
EXTD=no idea, if the genre is choosed all right.
EXTT0=
EXTT1=
EXTT2=
EXTT3=
EXTT4=
EXTT5=
EXTT6=
PLAYORDER=
